<svg width="131" height="32" viewBox="0 0 131 32" fill="none" xmlns="http://www.w3.org/2000/svg">
<path d="M30.523 4.915V31H23.271V16.607L18.35 31H12.282L7.324 16.496V31H0.0720001V4.915H8.841L15.39 21.861L21.791 4.915H30.523ZM33.4671 20.603C33.4671 18.457 33.8494 16.5823 34.6141 14.979C35.4034 13.3757 36.4641 12.1423 37.7961 11.279C39.1528 10.4157 40.6574 9.984 42.3101 9.984C43.7408 9.984 44.9741 10.2677 46.0101 10.835C47.0461 11.4023 47.8478 12.167 48.4151 13.129V10.243H55.6671V31H48.4151V28.114C47.8478 29.076 47.0338 29.8407 45.9731 30.408C44.9371 30.9753 43.7161 31.259 42.3101 31.259C40.6574 31.259 39.1528 30.8273 37.7961 29.964C36.4641 29.1007 35.4034 27.8673 34.6141 26.264C33.8494 24.636 33.4671 22.749 33.4671 20.603ZM48.4151 20.603C48.4151 19.271 48.0451 18.2227 47.3051 17.458C46.5898 16.6933 45.7018 16.311 44.6411 16.311C43.5558 16.311 42.6554 16.6933 41.9401 17.458C41.2248 18.198 40.8671 19.2463 40.8671 20.603C40.8671 21.935 41.2248 22.9957 41.9401 23.785C42.6554 24.5497 43.5558 24.932 44.6411 24.932C45.7018 24.932 46.5898 24.5497 47.3051 23.785C48.0451 23.0203 48.4151 21.9597 48.4151 20.603ZM67.0515 13.906C67.8655 12.722 68.8522 11.7847 70.0115 11.094C71.1709 10.4033 72.4165 10.058 73.7485 10.058V17.791H71.7135C70.1349 17.791 68.9632 18.0993 68.1985 18.716C67.4339 19.3327 67.0515 20.4057 67.0515 21.935V31H59.7995V10.243H67.0515V13.906ZM80.0114 8.319C78.7287 8.319 77.6927 7.97367 76.9034 7.283C76.1387 6.56767 75.7564 5.67967 75.7564 4.619C75.7564 3.53367 76.1387 2.63333 76.9034 1.918C77.6927 1.20267 78.7287 0.844998 80.0114 0.844998C81.2694 0.844998 82.2807 1.20267 83.0454 1.918C83.8347 2.63333 84.2294 3.53367 84.2294 4.619C84.2294 5.67967 83.8347 6.56767 83.0454 7.283C82.2807 7.97367 81.2694 8.319 80.0114 8.319ZM83.6004 10.243V31H76.3484V10.243H83.6004ZM86.5462 20.603C86.5462 18.457 86.9902 16.5823 87.8782 14.979C88.7662 13.3757 89.9995 12.1423 91.5782 11.279C93.1815 10.4157 95.0069 9.984 97.0542 9.984C99.6935 9.984 101.914 10.7117 103.714 12.167C105.515 13.5977 106.674 15.608 107.192 18.198H99.4962C99.0522 16.8413 98.1889 16.163 96.9062 16.163C95.9935 16.163 95.2659 16.5453 94.7232 17.31C94.2052 18.05 93.9462 19.1477 93.9462 20.603C93.9462 22.0583 94.2052 23.1683 94.7232 23.933C95.2659 24.6977 95.9935 25.08 96.9062 25.08C98.2135 25.08 99.0769 24.4017 99.4962 23.045H107.192C106.674 25.6103 105.515 27.6207 103.714 29.076C101.914 30.5313 99.6935 31.259 97.0542 31.259C95.0069 31.259 93.1815 30.8273 91.5782 29.964C89.9995 29.1007 88.7662 27.8673 87.8782 26.264C86.9902 24.6607 86.5462 22.7737 86.5462 20.603ZM119.862 31.259C117.79 31.259 115.927 30.8273 114.275 29.964C112.647 29.1007 111.364 27.8673 110.427 26.264C109.489 24.6607 109.021 22.7737 109.021 20.603C109.021 18.457 109.489 16.5823 110.427 14.979C111.389 13.3757 112.684 12.1423 114.312 11.279C115.964 10.4157 117.827 9.984 119.899 9.984C121.971 9.984 123.821 10.4157 125.449 11.279C127.101 12.1423 128.396 13.3757 129.334 14.979C130.296 16.5823 130.777 18.457 130.777 20.603C130.777 22.749 130.296 24.636 129.334 26.264C128.396 27.8673 127.101 29.1007 125.449 29.964C123.796 30.8273 121.934 31.259 119.862 31.259ZM119.862 24.969C120.873 24.969 121.712 24.599 122.378 23.859C123.068 23.0943 123.414 22.009 123.414 20.603C123.414 19.197 123.068 18.124 122.378 17.384C121.712 16.644 120.885 16.274 119.899 16.274C118.912 16.274 118.086 16.644 117.42 17.384C116.754 18.124 116.421 19.197 116.421 20.603C116.421 22.0337 116.741 23.119 117.383 23.859C118.024 24.599 118.85 24.969 119.862 24.969Z" fill="white"/>
</svg>
